<?xml version="1.0" encoding="utf-8"?>
<!-- Generated by IcoMoon.io -->
<!DOCTYPE svg PUBLIC "-//W3C//DTD SVG 1.1//EN" "http://www.w3.org/Graphics/SVG/1.1/DTD/svg11.dtd">
<svg version="1.1" xmlns="http://www.w3.org/2000/svg" xmlns:xlink="http://www.w3.org/1999/xlink" width="32" height="32" viewBox="0 0 32 32">
<path d="M26.667 16.667c-0.733 0-1.4 0.4-1.733 1-0.4 0.667-0.267 1.4-0.333 2.133-0.2 1.4-0.733 2.8-1.533 3.933-1.667 2.333-4.533 3.733-7.4 3.6-6.133-0.267-10.133-7-7.4-12.533 1.4-2.933 4.467-4.8 7.733-4.8h3.2l-1.933 1.933c-1.8 1.8 1 4.667 2.8 2.8l5.267-5.267c0.867-0.867 0.733-2.333-0.2-3l-5.133-5.133c-1.8-1.8-4.667 1-2.8 2.8l1.933 1.867h-3.133c-4.133 0-8.067 2.067-10.4 5.467-2.4 3.4-2.933 7.933-1.4 11.8 1.467 3.8 4.8 6.667 8.733 7.667 4.067 1 8.4-0.067 11.533-2.867 1.667-1.533 3-3.467 3.667-5.667 0.467-1.667 1.4-5.733-1.467-5.733z"></path>
</svg>
