<?xml version="1.0" encoding="utf-8"?>
<!-- Generator: Adobe Illustrator 16.0.3, SVG Export Plug-In . SVG Version: 6.00 Build 0)  -->
<!DOCTYPE svg PUBLIC "-//W3C//DTD SVG 1.1//EN" "http://www.w3.org/Graphics/SVG/1.1/DTD/svg11.dtd">
<svg version="1.1" id="Layer_1" xmlns="http://www.w3.org/2000/svg" xmlns:xlink="http://www.w3.org/1999/xlink" x="0px" y="0px"
	 width="60px" height="60px" viewBox="0 0 60 60" enable-background="new 0 0 60 60" xml:space="preserve">
<g>
	<path fill="#231F20" d="M48.765,21.704h-9.283c-0.892,0-1.614,0.724-1.614,1.615v7.051h-8.156v-7.051
		c0-0.892-0.723-1.615-1.614-1.615H11.235c-0.892,0-1.615,0.724-1.615,1.615v18.204v16.862c0,0.892,0.724,1.614,1.615,1.614h18.557
		c0.069,0,0.136-0.012,0.203-0.021C30.062,59.988,30.128,60,30.197,60h18.567c0.893,0,1.615-0.723,1.615-1.614v-8.243V23.319
		C50.38,22.428,49.657,21.704,48.765,21.704z M41.097,24.934h6.054v23.594h-6.054V24.934z M37.655,48.527h-5.843v-7.464
		c0-0.893-0.723-1.615-1.615-1.615h-8.916V33.6h16.374V48.527z M12.85,24.934h13.632v5.195h-6.815c-0.892,0-1.614,0.723-1.614,1.614
		v0.242v7.923H12.85V24.934z M28.178,56.771H12.85V43.139h6.816h8.512V56.771z M47.15,56.771H31.812v-5.014h7.457h0.212h7.669
		V56.771z"/>
	<path fill="#231F20" d="M48.765,0H19.666c-0.892,0-1.614,0.723-1.614,1.615v8.139c0,0.892,0.723,1.615,1.614,1.615h6.815v7.051
		c0,0.892,0.724,1.614,1.615,1.614H39.27c0.893,0,1.615-0.723,1.615-1.614v-7.051h7.88c0.893,0,1.615-0.723,1.615-1.615V1.615
		C50.38,0.723,49.657,0,48.765,0z M47.15,8.14H39.27c-0.892,0-1.614,0.723-1.614,1.615v7.05h-7.944v-7.05
		c0-0.892-0.723-1.615-1.614-1.615h-6.815V3.23H47.15V8.14z"/>
</g>
</svg>
